<svg xmlns="http://www.w3.org/2000/svg" viewBox="0 0 391 702.75">
    <defs>
		<style>
			.cls-1{stroke:#000;stroke-miterlimit:10;}
		</style>
	</defs>
	<ellipse class="cls-1" cx="20" cy="73.62" rx="19.5" ry="14.63"/>
	<ellipse class="cls-1" cx="195.5" cy="20" rx="29.25" ry="19.5"/>
	<ellipse class="cls-1" cx="371" cy="73.62" rx="19.5" ry="14.63"/>
	<path class="cls-1" d="M340.5,223.51c-9.75,0-48.75-9.75-48.75-9.75a97.16,97.16,0,0,0-9.75-39c-9.75-19.5-29.25-19.5-39-19.5s-19.5,19.5-19.5,29.25,9.75,29.25,9.75,29.25,19.5,39,19.5,48.75v9.75s0,9.75-9.75,9.75-29.25-39-29.25-39-29.25-48.75-29.25-68.25,9.75-39,19.5-48.75,29.25-19.5,48.75-19.5S282,116.26,282,116.26l19.5,19.5h9.75L262.5,87c-9.75-9.75-19.5-9.75-19.5-9.75H213.75s-9.75,0-9.75-9.75,48.75-19.5,78-9.75S340.5,126,340.5,126V77.25A19.5,19.5,0,0,1,360,57.75h0a19.5,19.5,0,0,1,19.5,19.5V126S408.75,67.5,438,57.75s78,0,78,9.75-9.75,9.75-9.75,9.75H477s-9.75,0-19.5,9.75l-48.75,48.75h9.75l19.5-19.5s9.75-9.75,29.25-9.75,39,9.75,48.75,19.5,19.5,29.25,19.5,48.75S506.25,243,506.25,243s-19.5,39-29.25,39-9.75-9.75-9.75-9.75V262.5c0-9.75,19.5-48.75,19.5-48.75s9.75-19.5,9.75-29.25-9.75-29.25-19.5-29.25-29.25,0-39,19.5a97.16,97.16,0,0,0-9.75,39s-39,9.75-48.75,9.75Z" transform="translate(-164.5 -8.5)"/>
	<ellipse class="cls-1" cx="78.5" cy="297.87" rx="19.5" ry="14.63"/>
    <ellipse class="cls-1" cx="312.5" cy="297.87" rx="19.5" ry="14.63"/>
    <path class="cls-1" d="M360,233.25c19.5,0,48.75,0,68.25-9.75,12.6-6.3,17.06-.39,18.64,4.58a5.74,5.74,0,0,1-3.14,7c-11.13,4.85-44.24,17.66-83.75,17.66s-72.63-12.81-83.75-17.67a5.64,5.64,0,0,1-3.21-6.76c1.51-5,5.91-11.22,18.71-4.82C309.19,232.22,342.76,233.25,360,233.25Z" transform="translate(-164.5 -8.5)"/>
	<path class="cls-1" d="M360,360c9.75,0,19.5,9.75,19.5,9.75s11.09-16.95,19.5-19.5c7-2.12,29.25,0,29.25,0S438,360,438,379.5s-9.75,29.25-9.75,29.25-22,1.17-29.25,0c-8.68-1.41-19.5-9.75-19.5-19.5,0,0-9.75,9.75-19.5,9.75s-19.5-9.75-19.5-9.75-11.09,16.95-19.5,19.5c-7,2.12-29.25,0-29.25,0S282,399,282,379.5s9.75-29.25,9.75-29.25,22.25-2.12,29.25,0c8.41,2.55,19.5,19.5,19.5,19.5S350.25,360,360,360Z" transform="translate(-164.5 -8.5)"/>
	<path class="cls-1" d="M447.75,350.25l68.25,78L486.75,457.5l19.5,19.5L369.75,711s68.14-187.93,78-253.5C451.74,431,447.75,350.25,447.75,350.25Z" transform="translate(-164.5 -8.5)"/>
	<path class="cls-1" d="M272.11,350.25l-68.11,78,29.19,29.25L213.73,477,350,711s-68-187.93-77.84-253.5C268.13,431,272.11,350.25,272.11,350.25Z" transform="translate(-164.5 -8.5)"/>
	<circle class="cls-1" cx="195.5" cy="419.75" r="9.75"/>
	<circle class="cls-1" cx="195.5" cy="488" r="9.75"/>
	<circle class="cls-1" cx="195.5" cy="556.25" r="9.75"/>
</svg>
